<?xml version="1.0" encoding="utf-8"?>
<!-- Generator: Adobe Illustrator 23.0.3, SVG Export Plug-In . SVG Version: 6.00 Build 0)  -->
<svg version="1.1" id="layer" xmlns="http://www.w3.org/2000/svg" xmlns:xlink="http://www.w3.org/1999/xlink" x="0px" y="0px"
	 viewBox="0 0 652 652" style="enable-background:new 0 0 652 652;" xml:space="preserve">
<style type="text/css">
	.st0{fill:#FF6122;}
</style>
<path class="st0" d="M152.7,548.4c88.6,0,101-108.7,161.6-205.7c-2.3,34.8-0.3,65.2,6.4,86.6c26.4,83.3,117.1,89.6,158.2,5
	c58.2-119.1,74.9-147.2,133.5-233.2c38.8-56.5-6-93.3-58.2-66.9c-26.8,13.4-69.9,47.5-124.1,119.1c9.4-54.5,7-146.9-71.9-141.5
	c-41.5,2.7-95.3,49.5-168.9,169.9c6-67.6,8.4-115.4-21.1-140.5c-20.1-17.1-67.6-23.8-96,13c-28.8,37.1-35.5,109.7-32.4,186
	C46,500.2,102.5,548.4,152.7,548.4"/>
</svg>
